# xmcd
#
# Track frame offsets: 
#        150
#        30463
#        74575
#        103638
#        137238
#        167063
#        193125
#        228025
#        272363
#
# Disc length: 3946 seconds
#
# Revision: 6
# Processed by: cddbd v1.5.2PL0 Copyright (c) Steve Scherf et al.
# Submitted via: ExactAudioCopy v0.95b4
#
DISCID=770f6809
DTITLE=Metallica - ...And Justice For All
DYEAR=1988
DGENRE=Metal
TTITLE0=Blackened
TTITLE1=And Justice For All
TTITLE2=Eye Of The Beholder
TTITLE3=One
TTITLE4=The Shortest Straw
TTITLE5=Harvester Of Sorrow
TTITLE6=The Frayed Ends Of Sanity
TTITLE7=To Live Is To Die
TTITLE8=Dyers Eve
EXTD=
EXTT0=
EXTT1=
EXTT2=
EXTT3=
EXTT4=
EXTT5=
EXTT6=
EXTT7=
EXTT8=
PLAYORDER=
